<?xml version="1.0" encoding="UTF-8" standalone="no"?>
<!-- Created with Inkscape (http://www.inkscape.org/) -->

<svg
   width="512"
   height="512"
   viewBox="0 0 135.46666 135.46667"
   version="1.1"
   id="svg5"
   xml:space="preserve"
   xmlns:inkscape="http://www.inkscape.org/namespaces/inkscape"
   xmlns:sodipodi="http://sodipodi.sourceforge.net/DTD/sodipodi-0.dtd"
   xmlns="http://www.w3.org/2000/svg"
   xmlns:svg="http://www.w3.org/2000/svg"><sodipodi:namedview
     id="namedview7"
     pagecolor="#ffffff"
     bordercolor="#000000"
     borderopacity="0.25"
     inkscape:showpageshadow="2"
     inkscape:pageopacity="0.0"
     inkscape:pagecheckerboard="0"
     inkscape:deskcolor="#d1d1d1"
     inkscape:document-units="px"
     showgrid="false" /><defs
     id="defs2" /><g
     inkscape:label="Layer 1"
     inkscape:groupmode="layer"
     id="layer1"><g
       style="opacity:1"
       id="g1789"
       transform="matrix(0.26458333,0,0,0.26458333,1.3231166e-4,-3.5514594e-5)"><g
         id="g1779">
	<path
   class="st0"
   d="m 359.328,257.563 -1.953,-5.75 -5.656,-16.719 -74.5,-219.891 V 15.156 C 274.109,6.094 265.625,0 256.031,0 246.422,0 237.89,6.094 234.812,15.219 v -0.047 l -82.141,242.469 82.25,239.234 0.016,0.109 c 3.063,8.844 11.594,15.063 21.156,15.016 9.453,0.047 18.125,-6.078 21.188,-15.156 l -0.031,0.031 z m -103.078,167.312 -0.156,-0.484 -0.156,0.484 -57.453,-167.266 h 115.203 z"
   style="fill:#df5656"
   id="path1777" />
</g></g><text
       xml:space="preserve"
       style="font-style:normal;font-variant:normal;font-weight:normal;font-stretch:normal;font-size:25.4px;font-family:sans-serif;-inkscape-font-specification:'sans-serif, Normal';font-variant-ligatures:normal;font-variant-caps:normal;font-variant-numeric:normal;font-variant-east-asian:normal;fill:#000000;fill-opacity:1;stroke:#000000;stroke-width:2.64583;stroke-opacity:1"
       x="58.551231"
       y="42.630859"
       id="text2438"><tspan
         sodipodi:role="line"
         id="tspan2436"
         style="font-style:normal;font-variant:normal;font-weight:normal;font-stretch:normal;font-size:25.4px;font-family:sans-serif;-inkscape-font-specification:'sans-serif, Normal';font-variant-ligatures:normal;font-variant-caps:normal;font-variant-numeric:normal;font-variant-east-asian:normal;fill:#000000;fill-opacity:1;stroke:#000000;stroke-width:2.64583;stroke-opacity:1"
         x="58.551231"
         y="42.630859">N</tspan></text></g><style
     type="text/css"
     id="style1775">

	.st0{fill:#4B4B4B;}

</style></svg>
