<!--?xml version="1.0" encoding="utf-8"?-->
<!-- Generator: Adobe Illustrator 15.1.0, SVG Export Plug-In . SVG Version: 6.00 Build 0)  -->

<svg version="1.1" id="_x32_" xmlns="http://www.w3.org/2000/svg" xmlns:xlink="http://www.w3.org/1999/xlink" x="0px" y="0px" width="512px" height="512px" viewBox="0 0 512 512" style="width: 256px; height: 256px; opacity: 1;" xml:space="preserve">
<style type="text/css">

	.st0{fill:#4B4B4B;}

</style>
<g>
	<path class="st0" d="M194.313,270.688c0-12.531-10.156-22.688-22.688-22.688h-66.641c-12.516,0-22.672,10.156-22.672,22.688V448
		h112V270.688z" style="fill: rgb(58, 171, 210);"></path>
	<polygon class="st0" points="32,480 32,0 0,0 0,480 0,512 32,512 512,512 512,480 	" style="fill: rgb(58, 171, 210);"></polygon>
	<path class="st0" d="M338.313,22.688C338.313,10.156,328.156,0,315.625,0h-66.641c-12.516,0-22.672,10.156-22.672,22.688V448h112
		V22.688z" style="fill: rgb(58, 171, 210);"></path>
	<path class="st0" d="M482.313,118.688c0-12.531-10.156-22.688-22.688-22.688h-66.641c-12.516,0-22.672,10.156-22.672,22.688V448
		h112V118.688z" style="fill: rgb(58, 171, 210);"></path>
</g>
</svg>
